<svg xmlns="http://www.w3.org/2000/svg" viewBox="0 0 1400 950" width="1400" height="950" style="background:#0f172a; font-family:'Roboto', 'Segoe UI', Arial, sans-serif;">
  <defs>
    <pattern id="grid" width="20" height="20" patternUnits="userSpaceOnUse">
      <path d="M 20 0 L 0 0 0 20" fill="none" stroke="#1e293b" stroke-width="0.8"/>
    </pattern>
    <marker id="arr" viewBox="0 0 10 10" refX="5" refY="5" markerWidth="6" markerHeight="6" orient="auto-start-reverse">
      <path d="M 0 0 L 10 5 L 0 10 z" fill="#38bdf8"/>
    </marker>
  </defs>
  <rect width="100%" height="100%" fill="url(#grid)"/>
  <rect x="20" y="20" width="1360" height="910" fill="none" stroke="#38bdf8" stroke-width="2"/>
  
  <text x="50" y="65" fill="#38bdf8" font-size="22" font-weight="bold">СБОРОЧНЫЙ ЧЕРТЁЖ: СНЕГООТВАЛ 1400 ММ С ПОВОРОТНЫМ МЕХАНИЗМОМ</text>
  <text x="50" y="90" fill="#94a3b8" font-size="14">Ширина 1400 мм, поворот на 25° вправо/влево, предохранительные пружины откидывания, быстросъем 50х50</text>

  <!-- Штамп -->
  <g transform="translate(980, 800)">
    <rect width="380" height="110" fill="#1e293b" stroke="#38bdf8" stroke-width="1.5"/>
    <text x="15" y="30" fill="#94a3b8" font-size="12">Узел:</text>
    <text x="100" y="30" fill="#f8fafc" font-size="14" font-weight="bold">Снегоотвал поворотный 1.4м</text>
    <text x="15" y="60" fill="#94a3b8" font-size="12">Материал:</text>
    <text x="100" y="60" fill="#f8fafc" font-size="13">Лист 2.5 мм, труба 50х50, резина 20мм</text>
    <text x="15" y="90" fill="#94a3b8" font-size="12">Чертеж:</text>
    <text x="100" y="90" fill="#38bdf8" font-size="13">05-PLOW-SNOW-1400 / М 1:5</text>
  </g>

  <!-- 1. ВИД СБОКУ (СЕЧЕНИЕ КОВША И ПРУЖИННЫЙ МЕХАНИЗМ) -->
  <g transform="translate(100, 160)">
    <text x="0" y="0" fill="#38bdf8" font-size="18" font-weight="bold">1. ВИД СБОКУ (МЕХАНИЗМ ОТКИДЫВАНИЯ ПРИ УДАРЕ)</text>

    <!-- Земля -->
    <line x1="-30" y1="360" x2="450" y2="360" stroke="#64748b" stroke-width="2" stroke-dasharray="4,4"/>
    <text x="-20" y="380" fill="#64748b" font-size="11">Грунт / Снег</text>

    <!-- Дышло отвала из трубы 50х50 (горизонтальное) -->
    <rect x="-30" y="270" width="220" height="24" rx="2" fill="#d97706" stroke="#f59e0b" stroke-width="2"/>
    <text x="30" y="260" fill="#f59e0b" font-size="11" font-weight="bold">Дышло 50х50х2.5</text>

    <!-- Шарнир качания лопаты (палец Ф16) -->
    <circle cx="190" cy="282" r="14" fill="#334155" stroke="#cbd5e1" stroke-width="2"/>
    <circle cx="190" cy="282" r="5" fill="#38bdf8"/>
    <text x="145" y="325" fill="#38bdf8" font-size="11">Шарнир откидывания</text>

    <!-- Изогнутый профиль ковша (радиус R=400, высота 450 мм -> 225 px) -->
    <path d="M 190,282 L 180,350 L 220,350 Q 280,240 220,125" fill="none" stroke="#06b6d4" stroke-width="12" stroke-linecap="round"/>

    <!-- Резиновая демпферная кромка по низу ковша (толщина 20 мм) -->
    <rect x="180" y="350" width="40" height="15" fill="#0f172a" stroke="#94a3b8" stroke-width="1.5"/>
    <text x="230" y="362" fill="#94a3b8" font-size="11">Резина ТМКЩ t=20</text>

    <!-- Предохранительная пружина откидывания (2 шт) -->
    <line x1="80" y1="270" x2="220" y2="150" stroke="#fbbf24" stroke-width="8" stroke-dasharray="8,4"/>
    <circle cx="80" cy="270" r="6" fill="#f59e0b"/>
    <circle cx="220" cy="150" r="6" fill="#f59e0b"/>
    <text x="110" y="195" fill="#fbbf24" font-size="12" font-weight="bold">Пружина L=200</text>

    <!-- Проушина для троса лебедки -->
    <polygon points="120,270 120,230 140,270" fill="#475569" stroke="#94a3b8" stroke-width="1.5"/>
    <circle cx="125" cy="245" r="5" fill="#ef4444"/>
    <text x="65" y="235" fill="#ef4444" font-size="11">Трос лебедки 12V</text>

    <!-- Размеры -->
    <line x1="280" y1="125" x2="280" y2="365" stroke="#38bdf8" stroke-width="1.5" marker-start="url(#arr)" marker-end="url(#arr)"/>
    <text x="295" y="245" fill="#38bdf8" font-size="13" font-weight="bold" transform="rotate(90, 295, 245)" text-anchor="middle">450 мм (ВЫСОТА ЛОПАТЫ)</text>
  </g>

  <!-- 2. ВИД СВЕРХУ (СЕКТОР ПОВОРОТА 0° / 25°) -->
  <g transform="translate(680, 160)">
    <text x="0" y="0" fill="#38bdf8" font-size="18" font-weight="bold">2. ВИД СВЕРХУ (СЕКТОР РЕГУЛИРОВКИ УГЛА СБРОСА)</text>

    <!-- Быстросъемный хвостовик под американский фаркоп 50х50 -->
    <rect x="0" y="180" width="120" height="40" rx="3" fill="#334155" stroke="#94a3b8" stroke-width="2"/>
    <circle cx="60" cy="200" r="8" fill="#38bdf8"/>
    <text x="15" y="170" fill="#94a3b8" font-size="11">Палец Ф16 в раму</text>

    <!-- Центральная поворотная балка -->
    <line x1="120" y1="200" x2="260" y2="200" stroke="#d97706" stroke-width="18" stroke-linecap="round"/>

    <!-- Центральный палец поворота Ф24 мм -->
    <circle cx="260" cy="200" r="16" fill="#ef4444" stroke="#fff" stroke-width="2"/>

    <!-- Секторная пластина с 3 отверстиями фиксации (-25°, 0°, +25°) -->
    <path d="M 210,130 A 90 90 0 0 1 210,270 L 260,200 Z" fill="#1e293b" stroke="#38bdf8" stroke-width="2"/>
    <circle cx="180" cy="155" r="7" fill="#fbbf24"/>
    <text x="110" y="150" fill="#fbbf24" font-size="11">+25° (Вправо)</text>
    <circle cx="170" cy="200" r="7" fill="#fbbf24"/>
    <text x="115" y="205" fill="#fbbf24" font-size="11">0° (Прямо)</text>
    <circle cx="180" cy="245" r="7" fill="#fbbf24"/>
    <text x="110" y="260" fill="#fbbf24" font-size="11">-25° (Влево)</text>

    <!-- Ковш в повернутом положении (1400 мм -> 420 px) -->
    <g transform="rotate(25, 260, 200)">
      <rect x="250" y="-10" width="20" height="420" rx="4" fill="#06b6d4" stroke="#0891b2" stroke-width="3"/>
      <!-- Ребра жесткости ковша (4 шт) -->
      <line x1="230" y1="40" x2="250" y2="40" stroke="#fff" stroke-width="6"/>
      <line x1="230" y1="150" x2="250" y2="150" stroke="#fff" stroke-width="6"/>
      <line x1="230" y1="250" x2="250" y2="250" stroke="#fff" stroke-width="6"/>
      <line x1="230" y1="360" x2="250" y2="360" stroke="#fff" stroke-width="6"/>
      <text x="260" y="210" fill="#0f172a" font-size="14" font-weight="bold" transform="rotate(-90, 260, 210)" text-anchor="middle">ШИРИНА ЛОПАТЫ 1400 мм</text>
    </g>

    <!-- Описание работы -->
    <g transform="translate(0, 390)">
      <rect width="600" height="130" fill="#1e293b" stroke="#64748b" stroke-width="1" rx="4"/>
      <text x="15" y="25" fill="#38bdf8" font-size="13" font-weight="bold">★ ОСОБЕННОСТИ ЭКСПЛУАТАЦИИ ЗИМОЙ:</text>
      <text x="15" y="50" fill="#f8fafc" font-size="11">1. При наезде на вмерзший камень или люк: лопата поворачивается на нижнем шарнире,</text>
      <text x="15" y="70" fill="#94a3b8" font-size="11">   растягивая пружины, перескакивает препятствие и возвращается назад без удара в раму.</text>
      <text x="15" y="90" fill="#f8fafc" font-size="11">2. Поворот отвала на 25° вправо позволяет сбрасывать снег на обочину при непрерывном ходе.</text>
      <text x="15" y="110" fill="#10b981" font-size="11" font-weight="bold">3. Подъем/опускание: тумблером на панели багги через квадроциклетную лебедку 12V 2000 lbs.</text>
    </g>
  </g>
</svg>