<svg xmlns="http://www.w3.org/2000/svg" viewBox="0 0 1400 950" width="1400" height="950" style="background:#0f172a; font-family:'Roboto', 'Segoe UI', Arial, sans-serif;">
  <defs>
    <pattern id="grid" width="20" height="20" patternUnits="userSpaceOnUse">
      <path d="M 20 0 L 0 0 0 20" fill="none" stroke="#1e293b" stroke-width="0.8"/>
    </pattern>
    <pattern id="hatch" width="8" height="8" patternUnits="userSpaceOnUse" patternTransform="rotate(45)">
      <line x1="0" y1="0" x2="0" y2="8" stroke="#64748b" stroke-width="1.5"/>
    </pattern>
    <marker id="arr" viewBox="0 0 10 10" refX="5" refY="5" markerWidth="6" markerHeight="6" orient="auto-start-reverse">
      <path d="M 0 0 L 10 5 L 0 10 z" fill="#38bdf8"/>
    </marker>
    <marker id="flow" viewBox="0 0 10 10" refX="8" refY="5" markerWidth="7" markerHeight="7" orient="auto">
      <path d="M 0 0 L 10 5 L 0 10 z" fill="#f87171"/>
    </marker>
  </defs>
  <rect width="100%" height="100%" fill="#0f172a"/>
  <rect width="100%" height="100%" fill="url(#grid)"/>
  <rect x="20" y="20" width="1360" height="910" fill="none" stroke="#38bdf8" stroke-width="2"/>
  <text x="50.0" y="62.0" fill="#38bdf8" font-size="22" text-anchor="start" font-weight="bold">ДЕТАЛИРОВКА: АДАПТЕР АД-01 (ВЕРХНИЙ ШАРНИР + РУЛЕВОЙ РЫЧАГ)</text>
  <text x="50.0" y="88.0" fill="#94a3b8" font-size="14" text-anchor="start" font-weight="normal">Заменяет стойку McPherson 2108: крепится на прилив кулака двумя болтами, несёт ШС верхнего рычага и рулевой рычаг</text>
<text x="50.0" y="128.0" fill="#10b981" font-size="14" text-anchor="start" font-weight="bold">ВИД А — ЩЕКА (вдоль оси машины), М 2:1</text><polygon points="264.0,582.0 336.0,582.0 323.4,375.0 269.4,375.0" fill="none" fill-opacity="1.0" stroke="#94a3b8" stroke-width="1.2" stroke-linejoin="round" stroke-dasharray="5,3"/><text x="210.0" y="618.0" fill="#94a3b8" font-size="10" text-anchor="start" font-weight="normal">штрих — прилив кулака 2108</text><polygon points="249.6,560.4 346.8,560.4 341.4,369.6 348.6,294.0 332.4,250.8 285.6,250.8 269.4,294.0 238.8,369.6" fill="#a78bfa" fill-opacity="0.28" stroke="#a78bfa" stroke-width="2.0" stroke-linejoin="round"/><polygon points="238.8,369.6 249.6,369.6 260.4,261.6 269.4,294.0" fill="#a78bfa" fill-opacity="0.6" stroke="#a78bfa" stroke-width="1.0" stroke-linejoin="round"/><circle cx="300.0" cy="519.0" r="11.2" fill="#0f172a" stroke="#f8fafc" stroke-width="1.5"/><line x1="280.2" y1="519.0" x2="319.8" y2="519.0" stroke="#f87171" stroke-width="0.8" stroke-linecap="round" stroke-dasharray="6,2,2,2"/><line x1="300.0" y1="538.8" x2="300.0" y2="499.2" stroke="#f87171" stroke-width="0.8" stroke-linecap="round" stroke-dasharray="6,2,2,2"/><circle cx="283.8" cy="411.0" r="11.2" fill="#0f172a" stroke="#f8fafc" stroke-width="1.5"/><line x1="264.0" y1="411.0" x2="303.6" y2="411.0" stroke="#f87171" stroke-width="0.8" stroke-linecap="round" stroke-dasharray="6,2,2,2"/><line x1="283.8" y1="430.8" x2="283.8" y2="391.2" stroke="#f87171" stroke-width="0.8" stroke-linecap="round" stroke-dasharray="6,2,2,2"/><circle cx="309.0" cy="294.0" r="36.0" fill="none" stroke="#f59e0b" stroke-width="1.4" stroke-dasharray="4,2"/><circle cx="309.0" cy="294.0" r="14.6" fill="#0f172a" stroke="#f8fafc" stroke-width="1.6"/><line x1="379.2" y1="600.0" x2="290.4" y2="213.0" stroke="#f87171" stroke-width="1.2" stroke-linecap="round" stroke-dasharray="14,4,3,4"/><text x="357.6" y="600.0" fill="#f87171" font-size="10" text-anchor="start" font-weight="normal">ось шкворня</text><line x1="300.0" y1="519.0" x2="270.3" y2="523.5" stroke="#38bdf8" stroke-width="0.8" stroke-linecap="round" stroke-dasharray="3,2"/><line x1="283.8" y1="411.0" x2="254.1" y2="415.5" stroke="#38bdf8" stroke-width="0.8" stroke-linecap="round" stroke-dasharray="3,2"/><line x1="266.4" y1="524.0" x2="250.2" y2="416.0" stroke="#38bdf8" stroke-width="1.2" marker-start="url(#arr)" marker-end="url(#arr)"/><text x="253.3" y="470.8" fill="#38bdf8" font-size="11" font-weight="bold" text-anchor="middle" transform="rotate(81.5,253.3,470.8)" dominant-baseline="auto">61*</text><line x1="283.8" y1="411.0" x2="254.5" y2="404.7" stroke="#38bdf8" stroke-width="0.8" stroke-linecap="round" stroke-dasharray="3,2"/><line x1="309.0" y1="294.0" x2="279.7" y2="287.7" stroke="#38bdf8" stroke-width="0.8" stroke-linecap="round" stroke-dasharray="3,2"/><line x1="250.6" y1="403.8" x2="275.8" y2="286.8" stroke="#38bdf8" stroke-width="1.2" marker-start="url(#arr)" marker-end="url(#arr)"/><text x="258.3" y="344.3" fill="#38bdf8" font-size="11" font-weight="bold" text-anchor="middle" transform="rotate(-77.8,258.3,344.3)" dominant-baseline="auto">66</text><line x1="249.6" y1="560.4" x2="249.6" y2="586.4" stroke="#38bdf8" stroke-width="0.8" stroke-linecap="round" stroke-dasharray="3,2"/><line x1="346.8" y1="560.4" x2="346.8" y2="586.4" stroke="#38bdf8" stroke-width="0.8" stroke-linecap="round" stroke-dasharray="3,2"/><line x1="249.6" y1="582.4" x2="346.8" y2="582.4" stroke="#38bdf8" stroke-width="1.2" marker-start="url(#arr)" marker-end="url(#arr)"/><text x="298.2" y="587.4" fill="#38bdf8" font-size="11" font-weight="bold" text-anchor="middle" transform="rotate(0.0,298.2,587.4)" dominant-baseline="hanging">54</text><line x1="210.0" y1="560.4" x2="204.0" y2="560.4" stroke="#38bdf8" stroke-width="0.8" stroke-linecap="round" stroke-dasharray="3,2"/><line x1="210.0" y1="250.8" x2="204.0" y2="250.8" stroke="#38bdf8" stroke-width="0.8" stroke-linecap="round" stroke-dasharray="3,2"/><line x1="200.0" y1="560.4" x2="200.0" y2="250.8" stroke="#38bdf8" stroke-width="1.2" marker-start="url(#arr)" marker-end="url(#arr)"/><text x="195.0" y="405.6" fill="#38bdf8" font-size="11" font-weight="bold" text-anchor="middle" transform="rotate(-90.0,195.0,405.6)" dominant-baseline="auto">172</text><line x1="318.0" y1="528.0" x2="417.0" y2="492.0" stroke="#94a3b8" stroke-width="0.9" stroke-linecap="round"/><circle cx="318.0" cy="528.0" r="2.2" fill="#94a3b8" stroke="#94a3b8" stroke-width="0"/><circle cx="417.0" cy="492.0" r="11.0" fill="#1e293b" stroke="#38bdf8" stroke-width="1.4"/><text x="417.0" y="496.0" fill="#38bdf8" font-size="11" text-anchor="middle" font-weight="bold">1</text><line x1="253.2" y1="330.0" x2="417.0" y2="204.0" stroke="#94a3b8" stroke-width="0.9" stroke-linecap="round"/><circle cx="253.2" cy="330.0" r="2.2" fill="#94a3b8" stroke="#94a3b8" stroke-width="0"/><circle cx="417.0" cy="204.0" r="11.0" fill="#1e293b" stroke="#38bdf8" stroke-width="1.4"/><text x="417.0" y="208.0" fill="#38bdf8" font-size="11" text-anchor="middle" font-weight="bold">2</text><line x1="334.2" y1="272.4" x2="417.0" y2="258.0" stroke="#94a3b8" stroke-width="0.9" stroke-linecap="round"/><circle cx="334.2" cy="272.4" r="2.2" fill="#94a3b8" stroke="#94a3b8" stroke-width="0"/><circle cx="417.0" cy="258.0" r="11.0" fill="#1e293b" stroke="#38bdf8" stroke-width="1.4"/><text x="417.0" y="262.0" fill="#38bdf8" font-size="11" text-anchor="middle" font-weight="bold">3</text><line x1="300.0" y1="519.0" x2="417.0" y2="546.0" stroke="#94a3b8" stroke-width="0.9" stroke-linecap="round"/><circle cx="300.0" cy="519.0" r="2.2" fill="#94a3b8" stroke="#94a3b8" stroke-width="0"/><circle cx="417.0" cy="546.0" r="11.0" fill="#1e293b" stroke="#38bdf8" stroke-width="1.4"/><text x="417.0" y="550.0" fill="#38bdf8" font-size="11" text-anchor="middle" font-weight="bold">6</text><line x1="309.0" y1="294.0" x2="417.0" y2="312.0" stroke="#94a3b8" stroke-width="0.9" stroke-linecap="round"/><circle cx="309.0" cy="294.0" r="2.2" fill="#94a3b8" stroke="#94a3b8" stroke-width="0"/><circle cx="417.0" cy="312.0" r="11.0" fill="#1e293b" stroke="#38bdf8" stroke-width="1.4"/><text x="417.0" y="316.0" fill="#38bdf8" font-size="11" text-anchor="middle" font-weight="bold">7</text><text x="210.0" y="654.0" fill="#f8fafc" font-size="11" text-anchor="start" font-weight="normal">2 отв. Ø12.5 (M12x1.25), Ø16.2 (M16)</text><text x="470.0" y="128.0" fill="#10b981" font-size="14" text-anchor="start" font-weight="bold">ВИД Б — СВЕРХУ, М 2:1</text><rect x="588.8" y="211.0" width="109.8" height="10.8" rx="0" fill="#a78bfa" fill-opacity="0.55" stroke="#a78bfa" stroke-width="1.5"/><rect x="588.8" y="272.2" width="109.8" height="10.8" rx="0" fill="#a78bfa" fill-opacity="0.55" stroke="#a78bfa" stroke-width="1.5"/><rect x="614.0" y="221.8" width="72.0" height="50.4" rx="0" fill="none" fill-opacity="1" stroke="#94a3b8" stroke-width="1" stroke-dasharray="5,3"/><circle cx="659.0" cy="247.0" r="23.4" fill="#475569" stroke="#f8fafc" stroke-width="1.4"/><line x1="659.0" y1="189.4" x2="659.0" y2="304.6" stroke="#f8fafc" stroke-width="10.1" stroke-linecap="round"/><line x1="637.4" y1="247.0" x2="551.0" y2="247.0" stroke="#0ea5e9" stroke-width="39.6" stroke-linecap="round" stroke-opacity="0.6"/><text x="547.4" y="193.0" fill="#38bdf8" font-size="10" text-anchor="start" font-weight="normal">к верх. рычагу</text><polygon points="606.8,283.0 686.0,283.0 657.9,463.0 603.9,463.0" fill="#a78bfa" fill-opacity="0.45" stroke="#a78bfa" stroke-width="1.6" stroke-linejoin="round"/><circle cx="630.9" cy="463.0" r="27.0" fill="#a78bfa" stroke="#a78bfa" stroke-width="1.6"/><circle cx="630.9" cy="463.0" r="11.0" fill="#0f172a" stroke="#f8fafc" stroke-width="1.5"/><polygon points="686.0,283.0 686.0,355.0 653.6,283.0" fill="#f59e0b" fill-opacity="0.5" stroke="#f59e0b" stroke-width="1.0" stroke-linejoin="round"/><line x1="687.9" y1="247.0" x2="616.7" y2="517.0" stroke="#f87171" stroke-width="1.0" stroke-linecap="round" stroke-dasharray="10,4,2,4"/><circle cx="687.9" cy="247.0" r="4.0" fill="#f87171" stroke="#f87171" stroke-width="0"/><text x="605.9" y="509.8" fill="#f87171" font-size="11" text-anchor="end" font-weight="normal">14.8° — на центр задней оси</text><line x1="722.0" y1="247.0" x2="726.0" y2="247.0" stroke="#38bdf8" stroke-width="0.8" stroke-linecap="round" stroke-dasharray="3,2"/><line x1="722.0" y1="463.0" x2="726.0" y2="463.0" stroke="#38bdf8" stroke-width="0.8" stroke-linecap="round" stroke-dasharray="3,2"/><line x1="730.0" y1="247.0" x2="730.0" y2="463.0" stroke="#38bdf8" stroke-width="1.2" marker-start="url(#arr)" marker-end="url(#arr)"/><text x="735.0" y="355.0" fill="#38bdf8" font-size="11" font-weight="bold" text-anchor="middle" transform="rotate(90.0,735.0,355.0)" dominant-baseline="auto">120</text><line x1="700.4" y1="211.0" x2="710.4" y2="211.0" stroke="#38bdf8" stroke-width="0.8" stroke-linecap="round" stroke-dasharray="3,2"/><line x1="700.4" y1="283.0" x2="710.4" y2="283.0" stroke="#38bdf8" stroke-width="0.8" stroke-linecap="round" stroke-dasharray="3,2"/><line x1="714.4" y1="211.0" x2="714.4" y2="283.0" stroke="#38bdf8" stroke-width="1.2" marker-start="url(#arr)" marker-end="url(#arr)"/><text x="719.4" y="247.0" fill="#38bdf8" font-size="11" font-weight="bold" text-anchor="middle" transform="rotate(90.0,719.4,247.0)" dominant-baseline="auto">40</text><text x="563.6" y="337.0" fill="#38bdf8" font-size="11" text-anchor="end" font-weight="normal">зазор 28+0.5*</text><line x1="614.0" y1="216.4" x2="560.0" y2="166.0" stroke="#94a3b8" stroke-width="0.9" stroke-linecap="round"/><circle cx="614.0" cy="216.4" r="2.2" fill="#94a3b8" stroke="#94a3b8" stroke-width="0"/><circle cx="560.0" cy="166.0" r="11.0" fill="#1e293b" stroke="#38bdf8" stroke-width="1.4"/><text x="560.0" y="170.0" fill="#38bdf8" font-size="11" text-anchor="middle" font-weight="bold">1</text><line x1="632.0" y1="373.0" x2="560.0" y2="391.0" stroke="#94a3b8" stroke-width="0.9" stroke-linecap="round"/><circle cx="632.0" cy="373.0" r="2.2" fill="#94a3b8" stroke="#94a3b8" stroke-width="0"/><circle cx="560.0" cy="391.0" r="11.0" fill="#1e293b" stroke="#38bdf8" stroke-width="1.4"/><text x="560.0" y="395.0" fill="#38bdf8" font-size="11" text-anchor="middle" font-weight="bold">4</text><line x1="669.8" y1="304.6" x2="794.0" y2="337.0" stroke="#94a3b8" stroke-width="0.9" stroke-linecap="round"/><circle cx="669.8" cy="304.6" r="2.2" fill="#94a3b8" stroke="#94a3b8" stroke-width="0"/><circle cx="794.0" cy="337.0" r="11.0" fill="#1e293b" stroke="#38bdf8" stroke-width="1.4"/><text x="794.0" y="341.0" fill="#38bdf8" font-size="11" text-anchor="middle" font-weight="bold">5</text><line x1="630.9" y1="463.0" x2="560.0" y2="472.0" stroke="#94a3b8" stroke-width="0.9" stroke-linecap="round"/><circle cx="630.9" cy="463.0" r="2.2" fill="#94a3b8" stroke="#94a3b8" stroke-width="0"/><circle cx="560.0" cy="472.0" r="11.0" fill="#1e293b" stroke="#38bdf8" stroke-width="1.4"/><text x="560.0" y="476.0" fill="#38bdf8" font-size="11" text-anchor="middle" font-weight="bold">9</text><line x1="673.4" y1="232.6" x2="794.0" y2="193.0" stroke="#94a3b8" stroke-width="0.9" stroke-linecap="round"/><circle cx="673.4" cy="232.6" r="2.2" fill="#94a3b8" stroke="#94a3b8" stroke-width="0"/><circle cx="794.0" cy="193.0" r="11.0" fill="#1e293b" stroke="#38bdf8" stroke-width="1.4"/><text x="794.0" y="197.0" fill="#38bdf8" font-size="11" text-anchor="middle" font-weight="bold">8</text><text x="470.0" y="575.0" fill="#10b981" font-size="14" text-anchor="start" font-weight="bold">СЕЧЕНИЕ В-В — ВИЛКА РУЛЕВОГО РЫЧАГА, М 2:1</text><rect x="550.0" y="633.0" width="150.0" height="14.4" rx="0" fill="#a78bfa" fill-opacity="0.5" stroke="#a78bfa" stroke-width="1.4"/><rect x="550.0" y="679.0" width="150.0" height="14.4" rx="0" fill="#a78bfa" fill-opacity="0.5" stroke="#a78bfa" stroke-width="1.4"/><circle cx="640.0" cy="660.0" r="15.0" fill="#475569" stroke="#f8fafc" stroke-width="1.4"/><rect x="631.0" y="641.0" width="18.0" height="38.0" rx="2" fill="#94a3b8" fill-opacity="1.0" stroke="#f8fafc" stroke-width="1"/><line x1="640.0" y1="615.0" x2="640.0" y2="705.0" stroke="#f8fafc" stroke-width="5.0" stroke-linecap="round"/><line x1="640.0" y1="660.0" x2="780.0" y2="660.0" stroke="#a78bfa" stroke-width="8.0" stroke-linecap="round" stroke-opacity="0.5"/><text x="710.0" y="652.0" fill="#a78bfa" font-size="10" text-anchor="start" font-weight="normal">рулевая тяга</text><line x1="550.0" y1="641.0" x2="532.0" y2="641.0" stroke="#38bdf8" stroke-width="0.8" stroke-linecap="round" stroke-dasharray="3,2"/><line x1="550.0" y1="679.0" x2="532.0" y2="679.0" stroke="#38bdf8" stroke-width="0.8" stroke-linecap="round" stroke-dasharray="3,2"/><line x1="536.0" y1="641.0" x2="536.0" y2="679.0" stroke="#38bdf8" stroke-width="1.2" marker-start="url(#arr)" marker-end="url(#arr)"/><text x="531.0" y="660.0" fill="#38bdf8" font-size="10" font-weight="bold" text-anchor="middle" transform="rotate(90.0,531.0,660.0)" dominant-baseline="hanging">22</text><text x="440.0" y="730.0" fill="#94a3b8" font-size="10" text-anchor="start" font-weight="normal">ШС M12 между пластинами 8 мм, проставки high-misalignment, болт M12 10.9</text><rect x="880.0" y="112.0" width="450.0" height="186.0" rx="3" fill="#1e293b" fill-opacity="1.0" stroke="#64748b" stroke-width="1"/><text x="886.0" y="126.0" fill="#38bdf8" font-size="11" text-anchor="start" font-weight="bold">Поз</text><text x="920.0" y="126.0" fill="#38bdf8" font-size="11" text-anchor="start" font-weight="bold">Наименование</text><text x="1150.0" y="126.0" fill="#38bdf8" font-size="11" text-anchor="start" font-weight="bold">Материал</text><text x="1300.0" y="126.0" fill="#38bdf8" font-size="11" text-anchor="start" font-weight="bold">Кол</text><line x1="880.0" y1="132.0" x2="1330.0" y2="132.0" stroke="#64748b" stroke-width="1.0" stroke-linecap="round"/><text x="886.0" y="146.0" fill="#94a3b8" font-size="11" text-anchor="start" font-weight="normal">1</text><text x="920.0" y="146.0" fill="#f8fafc" font-size="11" text-anchor="start" font-weight="normal">Щека</text><text x="1150.0" y="146.0" fill="#f8fafc" font-size="11" text-anchor="start" font-weight="normal">09Г2С / Ст3 t=6</text><text x="1300.0" y="146.0" fill="#f8fafc" font-size="11" text-anchor="start" font-weight="normal">2</text><text x="886.0" y="164.0" fill="#94a3b8" font-size="11" text-anchor="start" font-weight="normal">2</text><text x="920.0" y="164.0" fill="#f8fafc" font-size="11" text-anchor="start" font-weight="normal">Перемычка (стенка П)</text><text x="1150.0" y="164.0" fill="#f8fafc" font-size="11" text-anchor="start" font-weight="normal">t=6</text><text x="1300.0" y="164.0" fill="#f8fafc" font-size="11" text-anchor="start" font-weight="normal">1</text><text x="886.0" y="182.0" fill="#94a3b8" font-size="11" text-anchor="start" font-weight="normal">3</text><text x="920.0" y="182.0" fill="#f8fafc" font-size="11" text-anchor="start" font-weight="normal">Шайба-бобышка Ø40/Ø16.2</text><text x="1150.0" y="182.0" fill="#f8fafc" font-size="11" text-anchor="start" font-weight="normal">t=5</text><text x="1300.0" y="182.0" fill="#f8fafc" font-size="11" text-anchor="start" font-weight="normal">2</text><text x="886.0" y="200.0" fill="#94a3b8" font-size="11" text-anchor="start" font-weight="normal">4</text><text x="920.0" y="200.0" fill="#f8fafc" font-size="11" text-anchor="start" font-weight="normal">Пластина рул. рычага</text><text x="1150.0" y="200.0" fill="#f8fafc" font-size="11" text-anchor="start" font-weight="normal">t=8</text><text x="1300.0" y="200.0" fill="#f8fafc" font-size="11" text-anchor="start" font-weight="normal">2</text><text x="886.0" y="218.0" fill="#94a3b8" font-size="11" text-anchor="start" font-weight="normal">5</text><text x="920.0" y="218.0" fill="#f8fafc" font-size="11" text-anchor="start" font-weight="normal">Косынка</text><text x="1150.0" y="218.0" fill="#f8fafc" font-size="11" text-anchor="start" font-weight="normal">t=6</text><text x="1300.0" y="218.0" fill="#f8fafc" font-size="11" text-anchor="start" font-weight="normal">1</text><text x="886.0" y="236.0" fill="#94a3b8" font-size="11" text-anchor="start" font-weight="normal">6</text><text x="920.0" y="236.0" fill="#f8fafc" font-size="11" text-anchor="start" font-weight="normal">Болт M12x1.25x70 10.9 + гайка</text><text x="1150.0" y="236.0" fill="#f8fafc" font-size="11" text-anchor="start" font-weight="normal">вместо болтов стойки</text><text x="1300.0" y="236.0" fill="#f8fafc" font-size="11" text-anchor="start" font-weight="normal">2</text><text x="886.0" y="254.0" fill="#94a3b8" font-size="11" text-anchor="start" font-weight="normal">7</text><text x="920.0" y="254.0" fill="#f8fafc" font-size="11" text-anchor="start" font-weight="normal">Болт M16x1.5x80 10.9 + гайка</text><text x="1150.0" y="254.0" fill="#f8fafc" font-size="11" text-anchor="start" font-weight="normal">ось ШС</text><text x="1300.0" y="254.0" fill="#f8fafc" font-size="11" text-anchor="start" font-weight="normal">1</text><text x="886.0" y="272.0" fill="#94a3b8" font-size="11" text-anchor="start" font-weight="normal">8</text><text x="920.0" y="272.0" fill="#f8fafc" font-size="11" text-anchor="start" font-weight="normal">ШС M16x1.5 + проставки</text><text x="1150.0" y="272.0" fill="#f8fafc" font-size="11" text-anchor="start" font-weight="normal">на верх. рычаг</text><text x="1300.0" y="272.0" fill="#f8fafc" font-size="11" text-anchor="start" font-weight="normal">1</text><text x="886.0" y="290.0" fill="#94a3b8" font-size="11" text-anchor="start" font-weight="normal">9</text><text x="920.0" y="290.0" fill="#f8fafc" font-size="11" text-anchor="start" font-weight="normal">ШС M12 + болт M12 10.9</text><text x="1150.0" y="290.0" fill="#f8fafc" font-size="11" text-anchor="start" font-weight="normal">рул. тяга / схожд.</text><text x="1300.0" y="290.0" fill="#f8fafc" font-size="11" text-anchor="start" font-weight="normal">1</text><rect x="880.0" y="312.0" width="470.0" height="204.0" rx="4" fill="#1e293b" fill-opacity="1.0" stroke="#64748b" stroke-width="1"/><text x="892.0" y="334.0" fill="#f59e0b" font-size="13" text-anchor="start" font-weight="bold">ТЕХНИЧЕСКИЕ ТРЕБОВАНИЯ</text><text x="892.0" y="354.0" fill="#f8fafc" font-size="11" text-anchor="start" font-weight="normal">* Размеры со звездочкой — снять с кулака-донора до резки!</text><text x="892.0" y="371.0" fill="#f8fafc" font-size="11" text-anchor="start" font-weight="normal">1. Изготовить 4 шт: 2 правых + 2 левых (зеркально).</text><text x="892.0" y="388.0" fill="#f8fafc" font-size="11" text-anchor="start" font-weight="normal">2. Зазор щек = толщина прилива + 0.3...0.5 мм (без люфта).</text><text x="892.0" y="405.0" fill="#f8fafc" font-size="11" text-anchor="start" font-weight="normal">3. Варить в кондукторе на кулаке-шаблоне (не рабочем!),</text><text x="892.0" y="422.0" fill="#f8fafc" font-size="11" text-anchor="start" font-weight="normal">   болты M12 вставлены. Остывание медленное.</text><text x="892.0" y="439.0" fill="#f8fafc" font-size="11" text-anchor="start" font-weight="normal">4. Швы катет 5, сплошные, без подрезов.</text><text x="892.0" y="456.0" fill="#f8fafc" font-size="11" text-anchor="start" font-weight="normal">5. Отверстие поз. 4 сверлить после сварки, по кондуктору.</text><text x="892.0" y="473.0" fill="#f87171" font-size="11" text-anchor="start" font-weight="normal">КУЛАК НЕ ГРЕТЬ И НЕ ВАРИТЬ — только болты.</text><text x="892.0" y="490.0" fill="#f8fafc" font-size="11" text-anchor="start" font-weight="normal">6. Затяжка: M12 10.9 — 110 Нм; M16 10.9 — 250 Нм, фиксатор.</text><text x="892.0" y="507.0" fill="#f8fafc" font-size="11" text-anchor="start" font-weight="normal">7. Через 50 км — протяжка, осмотр корня рычага на трещины.</text>

  <g transform="translate(980, 812)">
    <rect width="380" height="104" fill="#1e293b" stroke="#38bdf8" stroke-width="1.5"/>
    <line x1="0" y1="34" x2="380" y2="34" stroke="#64748b"/><line x1="0" y1="68" x2="380" y2="68" stroke="#64748b"/>
    <line x1="90" y1="0" x2="90" y2="104" stroke="#64748b"/>
    <text x="12.0" y="22.0" fill="#94a3b8" font-size="12" text-anchor="start" font-weight="normal">Узел:</text><text x="100.0" y="22.0" fill="#f8fafc" font-size="13" text-anchor="start" font-weight="bold">Адаптер АД-01 (Л/П)</text>
    <text x="12.0" y="56.0" fill="#94a3b8" font-size="12" text-anchor="start" font-weight="normal">Материал:</text><text x="100.0" y="56.0" fill="#f8fafc" font-size="12" text-anchor="start" font-weight="normal">09Г2С t=6/8 мм</text>
    <text x="12.0" y="90.0" fill="#94a3b8" font-size="12" text-anchor="start" font-weight="normal">Чертеж:</text><text x="100.0" y="90.0" fill="#38bdf8" font-size="12" text-anchor="start" font-weight="normal">08-SUSP-AD01 / М 2:1 / лист 8</text>
  </g>
</svg>